<?xml version="1.0" standalone="no"?>
<!DOCTYPE svg PUBLIC "-//W3C//DTD SVG 20010904//EN"
 "http://www.w3.org/TR/2001/REC-SVG-20010904/DTD/svg10.dtd">
<svg version="1.0" xmlns="http://www.w3.org/2000/svg"
 width="1024.000000pt" height="1024.000000pt" viewBox="0 0 1024.000000 1024.000000"
 preserveAspectRatio="xMidYMid meet">

<g transform="translate(0.000000,1024.000000) scale(0.100000,-0.100000)"
fill="#000000" stroke="none">
<path d="M2305 6681 c-114 -28 -177 -122 -177 -263 1 -95 42 -225 133 -422 52
-111 62 -142 66 -203 l6 -73 33 0 34 0 0 61 c0 51 7 76 41 148 138 293 183
474 147 595 -17 56 -100 141 -153 155 -44 12 -85 13 -130 2z m-49 -76 c-35
-45 -56 -114 -56 -184 0 -64 28 -202 65 -326 20 -65 34 -119 32 -122 -7 -7
-109 248 -129 321 -28 105 -24 192 10 257 25 47 79 99 103 99 5 0 -6 -20 -25
-45z m267 -15 c86 -101 74 -235 -45 -522 -22 -54 -42 -97 -45 -95 -2 2 12 58
31 123 50 175 70 304 57 380 -9 61 -41 136 -61 149 -5 3 -10 11 -10 16 0 17
36 -9 73 -51z m-126 -7 c25 -82 23 -283 -6 -488 -12 -88 -24 -162 -26 -164 -7
-7 -15 44 -36 239 -23 210 -21 327 7 419 20 68 39 66 61 -6z m76 -23 c46 -92
36 -233 -38 -480 -38 -130 -43 -120 -18 37 23 146 23 409 1 476 l-16 48 21
-13 c12 -8 34 -38 50 -68z m-157 53 c-38 -120 -35 -292 10 -603 11 -75 -2 -42
-45 112 -71 260 -74 380 -10 468 30 41 55 54 45 23z"/>
<path d="M5657 6212 c-10 -10 -17 -26 -17 -35 0 -9 -11 -24 -24 -32 -19 -13
-32 -14 -67 -6 -24 6 -65 11 -91 11 -78 0 -114 -54 -67 -101 20 -20 29 -21
117 -16 100 6 132 -2 132 -31 0 -10 7 -28 16 -40 13 -20 24 -22 95 -22 58 0
79 3 79 13 0 9 -19 13 -69 13 -80 0 -101 12 -101 59 0 36 13 45 60 45 33 0 75
33 114 88 24 36 32 40 79 45 29 2 60 2 70 -2 17 -6 17 -8 -2 -25 -29 -26 -26
-32 13 -32 18 0 52 -6 75 -14 47 -15 61 -8 43 21 -11 16 -10 20 5 25 10 3 26
10 35 15 22 11 141 12 134 0 -7 -11 115 -24 149 -15 14 3 25 10 25 15 0 10
129 12 154 3 12 -4 16 -20 16 -55 l0 -49 -62 0 -63 0 -61 -65 -61 -65 -112 0
c-67 0 -111 -4 -111 -10 0 -6 83 -10 230 -10 217 0 231 1 250 20 11 11 20 31
20 45 0 33 32 40 116 26 91 -16 144 4 144 55 0 52 -71 75 -175 55 -43 -8 -85
4 -85 24 0 7 -9 24 -21 39 l-20 26 -473 0 c-445 0 -474 -1 -489 -18z m153 -21
c0 -18 -45 -64 -76 -77 -60 -25 -74 -20 -74 29 0 24 3 47 7 50 10 10 143 8
143 -2z m-295 -74 c42 -9 61 -18 63 -30 4 -22 -27 -29 -108 -25 -55 3 -65 6
-68 22 -4 19 22 46 42 46 6 -1 38 -6 71 -13z m117 -27 c-5 -32 -19 -40 -28
-15 -6 15 11 45 25 45 4 0 6 -13 3 -30z m1053 0 c0 -13 -6 -25 -12 -27 -9 -3
-13 6 -13 27 0 21 4 30 13 28 6 -3 12 -15 12 -28z m202 14 c17 -44 -46 -66
-126 -44 -30 8 -41 16 -41 30 0 21 19 27 103 29 45 1 59 -3 64 -15z m-288 -65
c27 -9 32 -16 29 -38 -3 -26 -4 -26 -90 -29 -49 -1 -88 1 -88 6 0 4 12 20 28
34 42 40 68 45 121 27z"/>
<path d="M2619 6197 c-18 -12 -44 -38 -56 -56 l-23 -34 0 -461 c0 -439 1 -463
20 -493 25 -42 57 -62 111 -69 53 -6 127 26 146 66 9 17 13 77 13 181 0 130 3
158 15 163 20 7 38 -14 124 -151 141 -223 142 -225 185 -244 23 -10 55 -19 71
-19 47 0 116 40 137 80 32 59 20 95 -74 227 -47 65 -88 123 -92 130 -4 7 7 18
29 29 51 24 110 88 142 152 25 51 28 67 28 162 0 95 -3 111 -28 162 -40 81
-117 149 -201 176 -60 20 -87 22 -290 22 -215 0 -224 -1 -257 -23z m31 -104
c-1 -5 -7 -19 -15 -33 -11 -19 -14 -65 -15 -187 0 -108 -4 -163 -11 -163 -17
0 -8 352 10 373 14 18 31 23 31 10z m292 -127 l34 -23 28 23 c38 33 80 31 117
-5 33 -33 39 -83 15 -129 -16 -30 -84 -98 -132 -130 l-31 -22 -69 58 c-78 66
-106 107 -106 159 0 29 7 43 31 65 38 34 67 35 113 4z m-322 -330 c0 -8 -4
-17 -9 -20 -10 -7 -23 19 -14 28 11 11 23 6 23 -8z"/>
<path d="M4716 6179 c-78 -18 -135 -84 -150 -174 l-7 -40 28 35 c15 19 44 53
65 75 31 34 38 37 43 23 5 -12 -10 -38 -49 -85 -30 -37 -53 -69 -51 -71 11
-11 101 34 131 65 33 34 64 112 64 160 0 25 -10 27 -74 12z"/>
<path d="M6193 6103 c-23 -26 -43 -56 -43 -65 0 -23 5 -23 42 3 25 18 37 20
76 14 26 -4 56 -7 66 -7 27 1 63 30 88 70 l20 32 -103 0 -102 0 -44 -47z"/>
<path d="M5960 6010 c-23 -23 -26 -68 -7 -93 18 -23 59 -30 82 -14 27 21 24
85 -5 109 -29 23 -45 23 -70 -2z"/>
<path d="M5272 5870 c-213 -45 -347 -239 -312 -453 22 -135 101 -240 228 -300
64 -30 73 -32 187 -32 137 0 211 18 279 70 78 58 96 146 41 200 -47 48 -96 43
-201 -20 -60 -36 -120 -42 -177 -17 -26 12 -47 25 -47 30 0 5 75 30 167 56 92
27 185 57 205 67 143 73 49 326 -143 383 -65 20 -174 27 -227 16z m-4 -71 c-2
-6 -8 -10 -13 -10 -5 0 -11 4 -13 10 -2 6 4 11 13 11 9 0 15 -5 13 -11z m-78
-37 c0 -5 -12 -15 -26 -22 -64 -35 -114 -134 -114 -226 0 -30 -4 -54 -10 -54
-20 0 -11 123 14 175 32 70 136 167 136 127z m204 -82 c37 -14 66 -47 66 -75
0 -14 -1 -25 -3 -25 -1 0 -49 -13 -107 -30 -58 -16 -111 -30 -117 -30 -8 0
-13 13 -13 30 0 89 95 160 174 130z"/>
<path d="M7337 5865 c-125 -34 -193 -146 -167 -272 19 -92 81 -143 229 -192
75 -24 101 -45 101 -77 0 -51 -106 -45 -172 9 -24 20 -55 38 -70 42 -36 9 -93
-11 -111 -38 -83 -127 62 -257 288 -259 199 -2 325 93 325 244 0 131 -50 184
-230 249 -108 38 -136 59 -120 89 18 34 69 29 124 -11 76 -55 177 -31 192 46
8 43 -1 68 -38 111 -57 64 -227 93 -351 59z m-78 -607 c7 -24 20 -50 28 -60 8
-9 10 -18 5 -22 -5 -3 -15 0 -21 7 -15 18 -41 83 -41 102 0 30 17 14 29 -27z
m111 -27 c0 -4 11 -25 25 -46 27 -39 27 -57 0 -35 -18 15 -45 63 -45 80 0 5 5
10 10 10 6 0 10 -4 10 -9z m150 -46 c17 -18 21 -28 13 -36 -7 -7 -17 -2 -32
19 -34 49 -21 60 19 17z"/>
<path d="M3680 5815 c-25 -30 5 -57 40 -35 11 7 12 14 4 27 -15 23 -29 26 -44
8z"/>
<path d="M4496 5817 c-16 -12 -17 -14 -1 -27 14 -11 18 -11 31 2 13 12 13 16
1 26 -10 9 -18 9 -31 -1z"/>
<path d="M3567 5747 c-61 -60 -89 -124 -95 -213 -4 -70 -4 -74 17 -74 18 0 21
6 21 48 0 77 27 139 87 201 29 30 53 61 53 68 0 27 -42 12 -83 -30z"/>
<path d="M4376 5740 c-61 -65 -87 -125 -89 -203 -2 -49 1 -62 14 -65 13 -2 17
9 21 67 6 79 35 139 93 189 36 32 46 62 21 62 -7 0 -34 -23 -60 -50z"/>
<path d="M6408 5723 c-66 -69 -81 -104 -86 -205 -4 -76 -2 -88 12 -88 13 0 16
12 16 63 1 99 39 181 107 227 18 12 33 29 33 36 0 28 -37 13 -82 -33z"/>
<path d="M5066 4898 c-21 -29 -21 -110 0 -149 8 -17 31 -51 49 -75 19 -25 39
-63 45 -85 10 -35 8 -47 -8 -80 -21 -43 -6 -50 16 -8 23 43 9 113 -34 174 -80
112 -90 153 -54 213 22 36 10 45 -14 10z"/>
<path d="M5803 4786 c-37 -47 -56 -141 -57 -281 -1 -129 -1 -131 27 -164 15
-19 26 -39 23 -46 -2 -7 -8 -91 -12 -188 l-7 -175 28 -18 c25 -16 30 -16 54
-3 l26 15 -4 414 c-2 228 -7 425 -11 439 -9 35 -42 39 -67 7z m47 -269 c0
-144 5 -329 10 -410 5 -82 6 -155 3 -163 -8 -22 -51 -17 -58 7 -4 11 -1 99 5
195 12 165 12 175 -6 200 -45 63 -45 66 -39 168 8 153 46 289 75 271 6 -4 10
-113 10 -268z"/>
<path d="M4310 4641 c0 -143 1 -149 25 -175 13 -14 29 -26 36 -26 12 0 10
-127 -7 -396 -6 -95 -5 -103 15 -123 27 -27 55 -27 82 0 21 21 21 28 15 133
-3 61 -9 170 -13 242 l-6 132 34 30 34 30 3 151 c2 93 0 151 -6 151 -18 0 -22
-31 -22 -161 0 -116 -2 -131 -20 -149 -11 -11 -24 -20 -30 -20 -19 0 -21 -49
-6 -274 16 -240 15 -256 -25 -256 -36 0 -39 28 -23 270 l16 233 -41 37 -41 38
0 141 c0 87 -4 141 -10 141 -6 0 -10 -56 -10 -149z"/>
<path d="M4354 4777 c-2 -7 -3 -62 -2 -123 l3 -109 60 0 60 0 3 123 c2 76 -1
122 -7 122 -6 0 -12 -45 -13 -110 -4 -145 -22 -145 -26 0 -1 61 -7 110 -12
110 -15 0 -23 -46 -16 -95 8 -51 -2 -135 -15 -135 -5 0 -9 52 -9 115 0 72 -4
115 -10 115 -6 0 -13 -6 -16 -13z"/>
<path d="M4896 4774 c-14 -38 -5 -82 25 -120 50 -63 60 -87 49 -125 -13 -44
-12 -48 5 -25 27 35 18 80 -25 137 -47 62 -56 89 -41 117 13 25 14 32 2 32 -5
0 -12 -7 -15 -16z"/>
<path d="M5249 4763 c-13 -36 -4 -70 32 -116 45 -55 55 -92 35 -122 -17 -26
-9 -34 12 -13 25 25 14 82 -28 138 -39 52 -52 102 -30 115 13 8 13 25 0 25 -6
0 -15 -12 -21 -27z"/>
<path d="M4566 4393 c-9 -29 11 -176 33 -232 45 -119 135 -219 249 -274 39
-20 62 -37 62 -48 0 -36 22 -40 221 -37 l194 3 12 26 c8 17 35 37 70 55 79 38
181 141 221 224 36 74 64 193 60 254 l-3 41 -557 3 c-524 2 -557 1 -562 -15z
m1096 -58 c-5 -76 -29 -161 -64 -227 -39 -73 -138 -168 -218 -208 -33 -17 -60
-34 -60 -39 0 -5 -7 -17 -16 -25 -13 -13 -42 -16 -158 -16 -171 0 -206 5 -206
31 0 13 -20 28 -67 51 -131 64 -232 186 -268 323 -15 61 -20 147 -8 158 3 4
245 6 537 5 l531 -3 -3 -50z"/>
<path d="M4640 4335 c0 -13 36 -15 265 -15 229 0 265 2 265 15 0 13 -36 15
-265 15 -229 0 -265 -2 -265 -15z"/>
<path d="M4655 4218 c10 -46 53 -123 97 -173 49 -56 146 -121 160 -107 7 7
-10 23 -50 51 -33 22 -77 60 -97 83 -39 45 -85 131 -85 161 0 9 -7 17 -16 17
-12 0 -14 -7 -9 -32z"/>
</g>
</svg>
